<?xml version="1.0" encoding="utf-8"?>
<!-- Generator: Adobe Illustrator 24.0.3, SVG Export Plug-In . SVG Version: 6.00 Build 0)  -->
<svg version="1.1" id="Layer_1" xmlns="http://www.w3.org/2000/svg" xmlns:xlink="http://www.w3.org/1999/xlink" x="0px" y="0px"
	 viewBox="0 0 634.82 103" style="enable-background:new 0 0 634.82 103;" xml:space="preserve">
<style type="text/css">
	.st0{fill:#FFDD00;}
</style>
<g>
	<g>
		<g>
			<path class="st0" d="M42.86,50.56c-0.35,0-0.53-0.18-0.53-0.44c0-0.18,0.18-0.53,0.27-0.89c2.21-8.32,4.43-17.8,4.43-25.95
				c0-10.54-3.9-17.09-15.76-17.09c-6.64,0-10.1,1.68-12.66,3.63v38.94l6.92,0.5c0,0.35-0.52,1.3-0.96,1.3H3.52
				c-0.44,0-0.9-0.88-0.9-1.24l6.32-0.54V5.66c0-0.89-0.18-1.06-1.06-1.24L0.27,2.92C0.09,2.83,0,2.74,0,2.47V1.5
				c0-0.18,0.09-0.35,0.27-0.35c0.71,0,16.47-0.89,16.74-0.89c0.44,0,0.53,0.27,0.62,0.8l0.8,5.23c4.34-3.54,9.65-6.02,16.29-6.02
				c14.79,0,21.78,8.15,21.78,21.61c0,7.17-1.51,15.67-3.63,24c-0.18,0.62-0.27,0.89-0.27,1.06c0,0.27,0.18,0.35,1.33,0.53
				l6.29,1.15c0.89,0.18,0.97,0.27,0.97,0.71v0.71c0,0.44-0.18,0.53-0.62,0.53H42.86z"/>
		</g>
	</g>
	<path d="M136.51,1.34c2.34-0.56,2.66,0,11.81,0s11.38-0.74,12.62,0s0.87,2.05-1.61,2.3c-2.47,0.25-6.87-0.49-6.87,1.48
		c0,1.55-0.06,8.22-0.06,8.22v33.4c0,0-0.25,1.48,1.67,1.67c1.92,0.19,7.11-0.06,7.73,0.37s0.62,1.77,0,1.77
		c-0.62,0-27.37,0-28.14,0c-0.77,0-1.42-1.9,0.31-2.02s6.06,0.12,7.05-0.43c0.99-0.56,1.98,0.37,1.98-1.79c0-2.16,0-40.14,0-40.14
		s0.19-1.3-0.62-1.92s-3.57,0.09-5.48-0.28C134.99,3.6,134.17,1.9,136.51,1.34z"/>
	<path d="M237.95,3.48c0,0,7.78,0.83,11.59,0S259.13,0,265.92,0c6.79,0,16.72,4.8,16.72,14.57s-7.12,15.23-7.12,15.23
		s3.97,3.64,7.12,10.43c3.14,6.79,10.19,16.29,13.85,21.89c3.79,5.8,10.83,9.63,12.82,9.72c3.22,0.14,4.78-2.32,5.61-2.48
		c0.83-0.17,1.78,1.82,0.78,2.65c-0.99,0.83-1.72,2.01-5.53,2.01c-3.81,0-10.74-1.72-20.29-11.93
		c-9.6-10.26-17.32-24.84-23.67-28.65c-2.65-1.59-7.28-1.46-9.33-0.43c-2.72,1.36-2.77,4.6-2.77,7.22c0,4.3,0,7.09,0,7.09
		s0.22,0.37,0.91,0.42c1.97,0.14,8.44,0.12,9.79,0.6c1.26,0.45,1.33,2.23,0.28,2.23c-1.49,0-28.39,0-29.3,0s-0.83-2.06,0.66-2.4
		s8.17-0.44,8.17-0.44l0.6-0.39V8.11c0,0-9.43-0.66-9.43-3.14S237.95,3.48,237.95,3.48z M254.11,15.57c0,3.5,0,6.93,0,9.38
		s1.41,4.31,6.6,4.31c8.25,0,10.28-7.23,11.07-9.75c0.8-2.52,2.08-14.22-7.76-14.22C255.81,5.3,254.11,12.07,254.11,15.57z"/>
	<path d="M367.13,1.01c0,0,2.47,1.57,13.61,1.57s19.05-0.78,19.05-0.78s2.72,0.29,1.48,2.27c-1.24,1.98-7.56,1.67-9.54,1.92
		c-1.98,0.25-0.49,2.85-0.49,2.85l7.07,38.96c0,0,0.02,0.67,0.59,0.8c0.98,0.23,2.95,0,4.55,0.13c1.55,0.13,0.49,1.84,0.49,1.84
		h-18.72c0,0-0.37-1.19,0.39-1.65c0.84-0.51,2.86-0.3,3.9-0.56c1.98-0.49-1.11-17.03-2.23-18s-13.5-0.63-14.47,0
		c-0.97,0.63-2,4.19-2.6,9.09c-0.45,3.7,0.44,8.35,0.61,8.81c0.32,0.87,4.7,0.34,5.57,0.54s0.15,1.77,0.15,1.77h-18.98
		c0,0-0.61-0.71-0.02-1.38c0.6-0.66,4.19-0.99,4.69-1.39c3.03-2.44,11.69-40.69,11.69-40.69s0.57-1.42-0.74-1.81
		c-3.71-1.09-12.27-1.34-10.14-3.65C364.58-0.04,367.13,1.01,367.13,1.01z M375.59,16.06c0,0-2.41,8.21-2.41,9.58
		s2.23,2.29,4.27,1.92c2.04-0.37,7.98,0.37,8.54-0.74c0.56-1.11-0.53-11.01-1.48-15.4c-0.8-3.67-1.55-5.74-3.71-5.74
		C377.87,5.69,375.59,16.06,375.59,16.06z"/>
	<path d="M597.66,1.01c0,0,2.47,1.57,13.61,1.57c11.13,0,19.05-0.78,19.05-0.78s2.72,0.29,1.48,2.27c-1.24,1.98-7.56,1.67-9.54,1.92
		s-0.49,2.85-0.49,2.85l7.07,38.96c0,0,0.02,0.67,0.59,0.8c0.98,0.23,2.95,0,4.55,0.13c1.55,0.13,0.49,1.84,0.49,1.84h-18.72
		c0,0-0.37-1.19,0.39-1.65c0.84-0.51,2.86-0.3,3.9-0.56c1.98-0.49-1.11-17.03-2.23-18c-1.11-0.97-13.5-0.63-14.47,0
		c-0.97,0.63-2,4.19-2.6,9.09c-0.45,3.7,0.44,8.35,0.61,8.81c0.32,0.87,4.7,0.34,5.57,0.54c0.87,0.19,0.15,1.77,0.15,1.77h-18.98
		c0,0-0.61-0.71-0.02-1.38c0.6-0.66,4.19-0.99,4.69-1.39c3.03-2.44,11.69-40.69,11.69-40.69s0.57-1.42-0.74-1.81
		c-3.71-1.09-12.27-1.34-10.14-3.65C595.12-0.04,597.66,1.01,597.66,1.01z M606.12,16.06c0,0-2.41,8.21-2.41,9.58
		s2.23,2.29,4.27,1.92c2.04-0.37,7.98,0.37,8.54-0.74s-0.53-11.01-1.48-15.4c-0.8-3.67-1.55-5.74-3.71-5.74
		C608.41,5.69,606.12,16.06,606.12,16.06z"/>
	<path d="M474.67,50.56c0,0,17.51-0.82,24.42-0.82c6.9,0,12.13,0.11,14.15,0.82c2.02,0.7,3.37,0.7,2.69-0.82
		c-0.67-1.52,1.35-3.87,2.19-5.22c0.84-1.35,1.68-2.53,0-2.69c-1.68-0.17-3.37,2.53-5.89,3.54c-2.53,1.01-15.34,1.05-15.34,1.05
		V7.81c0,0-0.32-2.33,0.69-2.51c1.01-0.18,7.24-1.19,7.75-2.37s2.19-2.79,0.17-2.24c-2.02,0.55-6.74,3.25-14.99,3.25
		s-10.33-0.82-12.02-0.65c-1.68,0.17-1.55,1.9-0.37,2.06c0.77,0.1,5.53,0.16,8.48,0.54c1.48,0.19,1.21,3.1,1.21,3.1v37.89
		c0,0-11.79,1.52-13.14,2.19C473.33,49.74,474.67,50.56,474.67,50.56z"/>
</g>
<g>
	<path d="M116.47,100.43c0.86,0.53,2.11,0.97,3.43,0.97c1.96,0,3.1-1.03,3.1-2.53c0-1.39-0.79-2.18-2.79-2.95
		c-2.42-0.86-3.92-2.11-3.92-4.2c0-2.31,1.91-4.03,4.8-4.03c1.52,0,2.62,0.35,3.28,0.73l-0.53,1.56c-0.48-0.26-1.47-0.7-2.82-0.7
		c-2.02,0-2.79,1.21-2.79,2.22c0,1.39,0.9,2.07,2.95,2.86c2.51,0.97,3.78,2.18,3.78,4.36c0,2.29-1.69,4.27-5.19,4.27
		c-1.43,0-2.99-0.42-3.78-0.95L116.47,100.43z"/>
	<path d="M140.41,102.76l-3.76-14.83h2.02l1.76,7.5c0.44,1.85,0.84,3.7,1.1,5.13h0.04c0.24-1.47,0.7-3.23,1.21-5.15l1.98-7.48h2
		l1.8,7.52c0.42,1.76,0.81,3.52,1.03,5.08h0.04c0.31-1.63,0.73-3.28,1.19-5.13l1.96-7.48h1.96l-4.2,14.83h-2l-1.87-7.72
		c-0.46-1.89-0.77-3.34-0.97-4.84h-0.04c-0.26,1.47-0.59,2.93-1.14,4.84l-2.11,7.72H140.41z"/>
	<path d="M174.68,95.8h-5.77v5.35h6.42v1.61h-8.34V87.93h8.01v1.61h-6.09v4.69h5.77V95.8z"/>
	<path d="M195.91,95.8h-5.77v5.35h6.42v1.61h-8.34V87.93h8.01v1.61h-6.09v4.69h5.77V95.8z"/>
	<path d="M212.63,89.56h-4.51v-1.63h10.98v1.63h-4.53v13.2h-1.94V89.56z"/>
	<path d="M230.76,100.43c0.86,0.53,2.11,0.97,3.43,0.97c1.96,0,3.1-1.03,3.1-2.53c0-1.39-0.79-2.18-2.79-2.95
		c-2.42-0.86-3.92-2.11-3.92-4.2c0-2.31,1.91-4.03,4.8-4.03c1.52,0,2.62,0.35,3.28,0.73l-0.53,1.56c-0.48-0.26-1.47-0.7-2.82-0.7
		c-2.02,0-2.79,1.21-2.79,2.22c0,1.39,0.9,2.07,2.95,2.86c2.51,0.97,3.78,2.18,3.78,4.36c0,2.29-1.69,4.27-5.19,4.27
		c-1.43,0-2.99-0.42-3.78-0.95L230.76,100.43z"/>
	<path d="M276.63,102.76c-0.42-0.42-0.81-0.84-1.39-1.45c-1.28,1.19-2.71,1.69-4.33,1.69c-2.88,0-4.55-1.94-4.55-4.16
		c0-2.02,1.21-3.41,2.9-4.33v-0.07c-0.77-0.97-1.23-2.05-1.23-3.1c0-1.8,1.3-3.65,3.76-3.65c1.85,0,3.28,1.23,3.28,3.15
		c0,1.56-0.9,2.79-3.26,3.96v0.07c1.25,1.45,2.66,3.08,3.61,4.14c0.68-1.03,1.14-2.46,1.43-4.33h1.76c-0.4,2.33-1.03,4.18-2.13,5.48
		c0.79,0.84,1.56,1.67,2.44,2.62H276.63z M274.3,100.21c-0.88-0.97-2.53-2.77-4.18-4.66c-0.79,0.51-1.91,1.45-1.91,3.01
		c0,1.69,1.25,2.99,3.04,2.99C272.52,101.55,273.59,100.98,274.3,100.21z M269.79,91.16c0,1.06,0.48,1.87,1.12,2.66
		c1.5-0.86,2.46-1.65,2.46-2.9c0-0.9-0.51-1.91-1.72-1.91C270.43,89.01,269.79,90.02,269.79,91.16z"/>
	<path d="M306.13,88.13c0.97-0.2,2.35-0.31,3.67-0.31c2.05,0,3.37,0.37,4.29,1.21c0.75,0.66,1.17,1.67,1.17,2.82
		c0,1.96-1.23,3.26-2.79,3.78v0.07c1.14,0.4,1.83,1.45,2.18,2.99c0.48,2.07,0.84,3.5,1.14,4.07h-1.98
		c-0.24-0.42-0.57-1.69-0.99-3.54c-0.44-2.05-1.23-2.82-2.97-2.88h-1.8v6.42h-1.92V88.13z M308.05,94.88H310
		c2.05,0,3.35-1.12,3.35-2.82c0-1.91-1.39-2.75-3.41-2.77c-0.92,0-1.58,0.09-1.89,0.18V94.88z"/>
	<path d="M336.05,95.8h-5.76v5.35h6.42v1.61h-8.34V87.93h8.01v1.61h-6.09v4.69h5.76V95.8z"/>
	<path d="M349.34,100.43c0.86,0.53,2.11,0.97,3.43,0.97c1.96,0,3.1-1.03,3.1-2.53c0-1.39-0.79-2.18-2.79-2.95
		c-2.42-0.86-3.92-2.11-3.92-4.2c0-2.31,1.91-4.03,4.8-4.03c1.52,0,2.62,0.35,3.28,0.73l-0.53,1.56c-0.48-0.26-1.47-0.7-2.82-0.7
		c-2.02,0-2.79,1.21-2.79,2.22c0,1.39,0.9,2.07,2.95,2.86c2.51,0.97,3.78,2.18,3.78,4.36c0,2.29-1.69,4.27-5.19,4.27
		c-1.43,0-2.99-0.42-3.79-0.95L349.34,100.43z"/>
	<path d="M373.67,89.56h-4.51v-1.63h10.98v1.63h-4.53v13.2h-1.94V89.56z"/>
	<path d="M392.94,98.09l-1.54,4.66h-1.98l5.04-14.83h2.31l5.06,14.83h-2.05l-1.58-4.66H392.94z M397.81,96.6l-1.45-4.27
		c-0.33-0.97-0.55-1.85-0.77-2.71h-0.04c-0.22,0.88-0.46,1.78-0.75,2.68l-1.45,4.29H397.81z"/>
	<path d="M415.71,87.93v8.78c0,3.32,1.47,4.73,3.45,4.73c2.2,0,3.61-1.45,3.61-4.73v-8.78h1.94v8.65c0,4.55-2.4,6.43-5.61,6.43
		c-3.04,0-5.32-1.74-5.32-6.34v-8.74H415.71z"/>
	<path d="M438.44,88.13c0.97-0.2,2.35-0.31,3.67-0.31c2.05,0,3.37,0.37,4.29,1.21c0.75,0.66,1.17,1.67,1.17,2.82
		c0,1.96-1.23,3.26-2.79,3.78v0.07c1.14,0.4,1.83,1.45,2.18,2.99c0.48,2.07,0.84,3.5,1.14,4.07h-1.98
		c-0.24-0.42-0.57-1.69-0.99-3.54c-0.44-2.05-1.23-2.82-2.97-2.88h-1.8v6.42h-1.92V88.13z M440.35,94.88h1.96
		c2.05,0,3.34-1.12,3.34-2.82c0-1.91-1.39-2.75-3.41-2.77c-0.92,0-1.58,0.09-1.89,0.18V94.88z"/>
	<path d="M463.19,98.09l-1.54,4.66h-1.98l5.04-14.83h2.31l5.06,14.83h-2.05l-1.58-4.66H463.19z M468.05,96.6l-1.45-4.27
		c-0.33-0.97-0.55-1.85-0.77-2.71h-0.04c-0.22,0.88-0.46,1.78-0.75,2.68l-1.45,4.29H468.05z"/>
	<path d="M484.66,102.76V87.93h2.09l4.75,7.5c1.1,1.74,1.96,3.3,2.66,4.82l0.04-0.02c-0.18-1.98-0.22-3.78-0.22-6.09v-6.21h1.8
		v14.83h-1.94l-4.71-7.52c-1.03-1.65-2.02-3.34-2.77-4.95l-0.07,0.02c0.11,1.87,0.15,3.65,0.15,6.12v6.34H484.66z"/>
	<path d="M512.36,89.56h-4.51v-1.63h10.98v1.63h-4.53v13.2h-1.94V89.56z"/>
</g>
</svg>
